# xmcd
#
# Track frame offsets:
#	150
#	13733
#	27148
#	38710
#	51398
#	64135
#	77785
#	91045
#	105590
#	118888
#	131875
#	144060
#	156850
#	171343
#	183988
#	197108
#
# Disc length: 2789 seconds
#
# Revision: 3
# Processed by: cddbd v1.4PL0 Copyright (c) Steve Scherf et al.
# Submitted via: audiograbber 1.82.02
#
DISCID=d70ae310
DTITLE=Big Joe Williams and Sonny Boy Williamson I - Throw A Boogie Woogie
DYEAR=1900
DGENRE=
TTITLE0=Sonny Boy Williamson - Good Morning School Girl
TTITLE1=Sonny Boy Williamson - Sugar Mama Blues
TTITLE2=Sonny Boy Williamson - Got The Bottle Up And Gone
TTITLE3=Sonny Boy Williamson - Early In The Morning
TTITLE4=Sonny Boy Williamson - Black Gal Blues
TTITLE5=Sonny Boy Williamson - Moonshine
TTITLE6=Sonny Boy Williamson - Whiskey Headed Blues
TTITLE7=Sonny Boy Williamson - You Give An Account
TTITLE8=Big Joe Williams - Rootin' Ground Hog
TTITLE9=Big Joe Williams - Borther James
TTITLE10=Big Joe Williams - Peach Orchard Mama
TTITLE11=Big Joe Williams - Crawlin' King Snake
TTITLE12=Big Joe Williams - Highway 49
TTITLE13=Big Joe Williams - Please Don't Go
TTITLE14=Big Joe Williams - North Wind Blues
TTITLE15=Big Joe Williams - Throw A Boogie Woogie
EXTD=
EXTT0=
EXTT1=
EXTT2=
EXTT3=
EXTT4=
EXTT5=
EXTT6=
EXTT7=
EXTT8=
EXTT9=
EXTT10=
EXTT11=
EXTT12=
EXTT13=
EXTT14=
EXTT15=
PLAYORDER=
